# xmcd
#
# Track frame offsets:
#  150
#  21325
#  43280
#  61855
#  82295
#  106390
#  124237
#  146250
#  163057
#  186310
#
# Disc length: 2730 seconds
#
# Revision: 2
# Processed by: cddbd v1.5.1PL2 Copyright (c) Steve Scherf et al.
# Submitted via: Collectorz.com_Music_Collector 6.9
#
DISCID=910aa80a
DTITLE=Chet Atkins - Chet Atkins/C.G.P. (Certified Guitar Player)
DYEAR=1988
DGENRE=Country - Instrumental
TTITLE0=Chinook Winds
TTITLE1=Put Your Clothes On
TTITLE2=Imagine
TTITLE3=Light-Hearted Lisa
TTITLE4=Knucklebusters
TTITLE5=Jethreaux
TTITLE6=Which Way Del Vecchio?
TTITLE7=Daydream
TTITLE8=Mockingbird Variations
TTITLE9=I Still Can't Say Goodbye
EXTD=
EXTT0=
EXTT1=
EXTT2=
EXTT3=
EXTT4=
EXTT5=
EXTT6=
EXTT7=
EXTT8=
EXTT9=
PLAYORDER=
